<svg width="226" height="100" viewBox="0 0 226 100" fill="none" xmlns="http://www.w3.org/2000/svg">
<path d="M153.506 89.9057L130.946 95H113.353L101 89.9057L118.195 14.8766H136.31L130.946 41.5094L122.578 72.9245L136.31 75.4717L153.506 5H172.6L162.792 46.6038L153.506 89.9057Z" fill="#739EF2"/>
<path d="M65.0213 99.3675H48.3784L74.9405 4.99998H105.164C108.759 4.99998 111.155 6.03245 112.42 8.16622C113.685 10.3 113.885 12.7091 113.086 15.4623L105.097 43.5454C104.698 44.7844 103.966 45.8857 102.834 46.9182C101.702 47.9506 100.105 48.4324 98.0408 48.4324C99.3057 48.6389 100.371 49.4649 101.236 50.9104C102.102 52.3558 102.102 54.5584 101.236 57.5182L92.6485 87.6662H76.0722L85.2591 55.2467C85.4588 54.5584 85.5254 53.9389 85.3256 53.3195C85.1259 52.7 84.5268 52.4247 83.5282 52.4247H78.0028L65.0213 99.3675ZM87.1231 40.2415C87.9219 40.2415 88.6542 40.035 89.3865 39.6221C90.0522 39.2091 90.5848 38.3831 90.9842 37.0753L95.378 21.726C96.0437 19.4545 95.1782 18.2844 92.8482 18.2844H87.6556L81.3979 40.2415H87.1231V40.2415Z" fill="#739EF2"/>
<path d="M174.47 13.4813L193.655 1.66621L209.137 0.687336L220.316 4.8738L209.723 77.6115L193.782 78.6194L196.891 52.8411L202.354 22.3204L190.117 20.6475L179.247 89.0253L162.444 90.0877L168.559 49.7392L174.47 13.4813Z" fill="#739EF2"/>
<path d="M18.3738 37.0688L16.8426 42.4376H12.7818L5.92487 66.7351H0L6.99002 42.3688H2.86258L4.39373 37H18.3738V37.0688Z" fill="#41414D"/>
<path d="M26.429 66.7351H20.5042L24.0325 54.2078H21.0367L17.4419 66.7351H11.517L19.9716 37.0689H25.8965L22.5679 48.9767H25.5636L28.9588 37.0689H34.8836L26.429 66.7351Z" fill="#41414D"/>
<path d="M36.7476 37.0689H48.0648L46.5337 42.4377H41.2079L39.3439 48.9767H44.5365L43.0054 54.2767H37.8128L35.8156 61.1598H41.3411L39.3439 66.8039H28.293L36.7476 37.0689Z" fill="#41414D"/>
</svg>
